<mxfile host="65bd71144e">
    <diagram id="e0RasbM6ODaBn0-rM2iv" name="Page-1">
        <mxGraphModel dx="898" dy="571" grid="1" gridSize="10" guides="1" tooltips="1" connect="1" arrows="1" fold="1" page="1" pageScale="1" pageWidth="827" pageHeight="1169" math="0" shadow="0">
            <root>
                <mxCell id="0"/>
                <mxCell id="1" parent="0"/>
                <mxCell id="11" style="edgeStyle=none;html=1;entryX=0;entryY=0.5;entryDx=0;entryDy=0;" edge="1" parent="1" target="3">
                    <mxGeometry relative="1" as="geometry">
                        <mxPoint x="70" y="340" as="sourcePoint"/>
                    </mxGeometry>
                </mxCell>
                <mxCell id="2" value="Front-end" style="shape=umlActor;html=1;verticalLabelPosition=bottom;verticalAlign=top;align=center;" vertex="1" parent="1">
                    <mxGeometry x="40" y="320" width="30" height="60" as="geometry"/>
                </mxCell>
                <mxCell id="18" value="Back-end" style="swimlane;horizontal=0;startSize=20;" vertex="1" parent="1">
                    <mxGeometry x="114" y="240" width="706" height="410" as="geometry"/>
                </mxCell>
                <mxCell id="12" style="edgeStyle=none;html=1;entryX=0;entryY=0.5;entryDx=0;entryDy=0;" edge="1" parent="18" source="3" target="5">
                    <mxGeometry relative="1" as="geometry"/>
                </mxCell>
                <mxCell id="14" style="edgeStyle=none;html=1;entryX=0.5;entryY=0;entryDx=0;entryDy=0;startArrow=classic;startFill=1;" edge="1" parent="18" source="7" target="8">
                    <mxGeometry relative="1" as="geometry"/>
                </mxCell>
                <mxCell id="20" value="Data Layer" style="swimlane;" vertex="1" parent="18">
                    <mxGeometry x="456" y="20" width="244" height="300" as="geometry"/>
                </mxCell>
                <mxCell id="8" value="Repository" style="shape=rect;html=1;verticalAlign=top;fontStyle=1;whiteSpace=wrap;align=center;" vertex="1" parent="20">
                    <mxGeometry x="30" y="130" width="120" height="30" as="geometry"/>
                </mxCell>
                <mxCell id="10" value="DB" style="shape=datastore;whiteSpace=wrap;html=1;" vertex="1" parent="20">
                    <mxGeometry x="170" y="220" width="60" height="60" as="geometry"/>
                </mxCell>
                <mxCell id="15" style="edgeStyle=none;html=1;entryX=0;entryY=0.5;entryDx=0;entryDy=0;startArrow=classic;startFill=1;" edge="1" parent="20" source="8" target="10">
                    <mxGeometry relative="1" as="geometry"/>
                </mxCell>
                <mxCell id="21" value="Business Layer" style="swimlane;" vertex="1" parent="18">
                    <mxGeometry x="220" y="20" width="220" height="300" as="geometry"/>
                </mxCell>
                <mxCell id="5" value="middlwares" style="shape=rect;html=1;verticalAlign=top;fontStyle=1;whiteSpace=wrap;align=center;" vertex="1" parent="21">
                    <mxGeometry x="6" y="160" width="120" height="30" as="geometry"/>
                </mxCell>
                <mxCell id="7" value="Controllers" style="shape=rect;html=1;verticalAlign=top;fontStyle=1;whiteSpace=wrap;align=center;" vertex="1" parent="21">
                    <mxGeometry x="90" y="60" width="120" height="30" as="geometry"/>
                </mxCell>
                <mxCell id="13" style="edgeStyle=none;html=1;entryX=0.5;entryY=1;entryDx=0;entryDy=0;" edge="1" parent="21" source="5" target="7">
                    <mxGeometry relative="1" as="geometry"/>
                </mxCell>
                <mxCell id="22" value="Router Layer" style="swimlane;" vertex="1" parent="18">
                    <mxGeometry x="40" y="20" width="170" height="300" as="geometry"/>
                </mxCell>
                <mxCell id="3" value="Routers" style="shape=rect;html=1;verticalAlign=top;fontStyle=1;whiteSpace=wrap;align=center;" vertex="1" parent="22">
                    <mxGeometry x="25" y="150" width="120" height="30" as="geometry"/>
                </mxCell>
                <mxCell id="30" value="&lt;br&gt;&lt;br&gt;Folders" style="sketch=0;html=1;aspect=fixed;strokeColor=none;shadow=0;align=center;verticalAlign=top;fillColor=#3B8DF1;shape=mxgraph.gcp2.files" vertex="1" parent="18">
                    <mxGeometry x="259" y="345" width="40.23" height="39.02" as="geometry"/>
                </mxCell>
                <mxCell id="32" style="edgeStyle=none;html=1;entryX=0.621;entryY=0.013;entryDx=0;entryDy=0;entryPerimeter=0;dashed=1;dashPattern=1 1;startArrow=none;startFill=0;endArrow=classic;endFill=1;" edge="1" parent="18" source="5">
                    <mxGeometry relative="1" as="geometry">
                        <mxPoint x="280.9828299999999" y="343.4972600000001" as="targetPoint"/>
                    </mxGeometry>
                </mxCell>
                <mxCell id="33" style="edgeStyle=none;html=1;dashed=1;dashPattern=1 1;startArrow=none;startFill=0;endArrow=classic;endFill=1;" edge="1" parent="18" source="31">
                    <mxGeometry relative="1" as="geometry">
                        <mxPoint x="370" y="347.01" as="targetPoint"/>
                    </mxGeometry>
                </mxCell>
                <mxCell id="35" style="edgeStyle=none;html=1;entryX=0.771;entryY=0.115;entryDx=0;entryDy=0;entryPerimeter=0;dashed=1;dashPattern=1 1;startArrow=none;startFill=0;" edge="1" parent="18" source="7">
                    <mxGeometry relative="1" as="geometry">
                        <mxPoint x="287.0173299999999" y="347.4773" as="targetPoint"/>
                        <Array as="points">
                            <mxPoint x="346" y="240"/>
                        </Array>
                    </mxGeometry>
                </mxCell>
                <mxCell id="34" style="edgeStyle=none;html=1;dashed=1;dashPattern=1 1;startArrow=none;startFill=0;entryX=0.281;entryY=-0.043;entryDx=0;entryDy=0;entryPerimeter=0;" edge="1" parent="18">
                    <mxGeometry relative="1" as="geometry">
                        <mxPoint x="362.99199999999996" y="345.5049999999999" as="targetPoint"/>
                        <mxPoint x="286" y="210" as="sourcePoint"/>
                    </mxGeometry>
                </mxCell>
                <mxCell id="31" value="Files&lt;br&gt;" style="aspect=fixed;html=1;points=[];align=center;image;fontSize=12;image=img/lib/azure2/general/Files.svg;" vertex="1" parent="18">
                    <mxGeometry x="354" y="345" width="32" height="35" as="geometry"/>
                </mxCell>
                <mxCell id="43" value="" style="edgeStyle=none;html=1;dashed=1;dashPattern=1 1;startArrow=none;startFill=0;endArrow=none;endFill=1;" edge="1" parent="18" source="7" target="31">
                    <mxGeometry relative="1" as="geometry">
                        <mxPoint x="484" y="490" as="sourcePoint"/>
                        <mxPoint x="484" y="587.01" as="targetPoint"/>
                    </mxGeometry>
                </mxCell>
                <mxCell id="23" style="edgeStyle=none;html=1;entryX=1;entryY=0.3333333333333333;entryDx=0;entryDy=0;entryPerimeter=0;" edge="1" parent="1" source="7" target="2">
                    <mxGeometry relative="1" as="geometry">
                        <mxPoint x="80" y="280" as="targetPoint"/>
                        <Array as="points">
                            <mxPoint x="230" y="290"/>
                        </Array>
                    </mxGeometry>
                </mxCell>
                <mxCell id="24" value="status:200,400.." style="edgeLabel;html=1;align=center;verticalAlign=middle;resizable=0;points=[];" vertex="1" connectable="0" parent="23">
                    <mxGeometry x="-0.2387" relative="1" as="geometry">
                        <mxPoint x="16" as="offset"/>
                    </mxGeometry>
                </mxCell>
                <mxCell id="25" value="status: 401, 403" style="edgeStyle=none;html=1;entryX=0.767;entryY=0.333;entryDx=0;entryDy=0;entryPerimeter=0;" edge="1" parent="1" source="5" target="2">
                    <mxGeometry relative="1" as="geometry">
                        <Array as="points">
                            <mxPoint x="240" y="330"/>
                        </Array>
                    </mxGeometry>
                </mxCell>
                <mxCell id="28" style="edgeStyle=none;html=1;entryX=1;entryY=0.5;entryDx=0;entryDy=0;exitX=0;exitY=0.5;exitDx=0;exitDy=0;startArrow=classic;startFill=1;" edge="1" parent="1" source="26" target="7">
                    <mxGeometry relative="1" as="geometry"/>
                </mxCell>
                <mxCell id="26" value="Extern server: &lt;br&gt;ex Gmail .." style="image;html=1;image=img/lib/clip_art/computers/Server_128x128.png" vertex="1" parent="1">
                    <mxGeometry x="850" y="370" width="80" height="80" as="geometry"/>
                </mxCell>
            </root>
        </mxGraphModel>
    </diagram>
</mxfile>